<?xml version="1.0" encoding="utf-8"?>
<!-- Generator: Adobe Illustrator 16.0.4, SVG Export Plug-In . SVG Version: 6.00 Build 0)  -->
<!DOCTYPE svg PUBLIC "-//W3C//DTD SVG 1.1//EN" "http://www.w3.org/Graphics/SVG/1.1/DTD/svg11.dtd">
<svg version="1.1" id="Layer_1" xmlns="http://www.w3.org/2000/svg" xmlns:xlink="http://www.w3.org/1999/xlink" x="0px" y="0px"
	 width="2000px" height="2000px" viewBox="0 0 2000 2000" enable-background="new 0 0 2000 2000" xml:space="preserve">
<g>
	<path d="M341.033,956.718l48.306-6.778c6.301-0.882,10.106-4.272,9.923-10.67l0.115-85.676c0-0.101-0.009-0.206-0.012-0.307
		c0-0.065,0.005-0.131,0.005-0.196c0-19.117-15.497-34.612-34.614-34.612c-0.822,0-1.636,0.037-2.444,0.095
		c-1.263-0.128-2.452-0.129-3.537,0.026l-106.089,14.806c-8.526,0.671-17.032,3.229-24.892,7.838
		c-15.046,8.823-24.66,23.362-27.712,39.241c-0.581,2.257-0.92,4.422-0.92,6.396v0.724c-0.173,2.578-0.173,5.171,0.001,7.766
		l0.041,210.45c-0.038,1.409,0.08,2.795,0.338,4.112c1.708,17.52,16.475,31.213,34.445,31.213c0.772,0,1.539-0.036,2.297-0.086
		c1.058,0.017,2.216-0.065,3.518-0.245l77.709-10.908c4.896-0.685,7.799-0.376,10.291,2.125c3.293,3.111,4.386,5.81,4.37,10.812
		l-0.443,139.26c-0.014,4.998-0.319,7.895-4.033,11.985c-3.106,3.292-5.804,4.384-10.706,5.074l-37.102,5.205
		c-4.202,0.59-7.801,0.382-10.297-2.124c-3.292-3.112-4.383-5.812-4.369-10.81l0.405-42.89c-0.181-6.397-2.679-8.903-8.975-8.015
		l-48.303,6.773c-6.301,0.889-9.407,4.178-9.225,10.575l-0.209,84.977c0,0.077,0.004,0.16,0.007,0.239
		c-0.001,0.128-0.012,0.257-0.012,0.386c0,19.115,15.498,34.612,34.614,34.612c0.262,0,0.52-0.014,0.779-0.02
		c1.809,0.055,3.566-0.021,5.212-0.226l109.271-15.456c0.618-0.087,1.367-0.213,2.208-0.373c2.887-0.497,5.744-1.213,8.548-2.147
		c3.406-1.056,6.771-2.378,9.049-3.877c4.227-2.262,8.239-5.086,11.932-8.471c12.258-11.249,18.577-26.541,18.822-41.959
		c0.014-0.144,0.023-0.28,0.026-0.409l-0.188-210.971c0.121-1.173,0.183-2.36,0.183-3.562c0-19.118-15.497-34.612-34.614-34.612
		c-0.932,0-1.853,0.048-2.768,0.119c-1.07-0.033-2.199,0.039-3.405,0.209l-78.408,10.998c-4.201,0.59-7.8,0.38-10.29-2.125
		c-3.995-3.008-4.387-5.809-4.374-10.807l0.348-139.958c-0.587-4.2,0.322-7.899,4.125-11.285c2.41-3.196,5.809-4.383,10.011-4.975
		l37.101-5.208c4.901-0.685,7.797-0.38,10.993,2.029c3.193,2.406,3.687,5.906,4.276,10.105l-0.311,43.587
		C332.241,955.096,334.738,957.602,341.033,956.718z"/>
	<path d="M491.875,800.035l-47.604,6.683c-6.303,0.88-9.412,4.173-9.226,10.569l-0.002,523.953c0.184,6.4,2.674,8.905,8.976,8.021
		l47.605-6.68c6.294-0.885,10.105-4.275,9.921-10.673l0.004-523.949C501.364,801.562,498.171,799.153,491.875,800.035z"/>
	<path d="M735.087,1000.196l-81.204,11.396c-6.303,0.883-9.311,4.877-9.128,11.273l0.479,49.189
		c0.184,6.396,3.376,8.804,8.977,8.018l14.001-1.967c6.301-0.882,8.791,1.623,8.976,8.021l-0.174,147.442
		c-0.015,4.996-0.319,7.895-3.331,11.888c-3.104,3.289-6.504,4.48-11.407,5.167l-36.406,5.108
		c-4.898,0.689-7.097,0.284-10.988-2.023c-2.595-3.209-3.688-5.912-3.676-10.91l0.642-376.993c-0.588-4.195,0.32-7.896,3.426-11.184
		c3.109-3.292,6.412-5.184,11.31-5.872l36.403-5.108c4.902-0.684,7.195,0.417,11.09,2.728c2.495,2.501,2.981,6.004,3.572,10.202
		l-0.305,43.585c0.184,6.4,3.375,8.809,9.678,7.925l47.604-6.681c6.3-0.884,9.409-4.174,9.224-10.575l0.205-82.995
		c0.066-0.873,0.112-1.749,0.112-2.639c0-19.116-15.498-34.612-34.614-34.612c-0.546,0-1.088,0.018-1.629,0.041
		c-1.234-0.082-2.507-0.034-3.762,0.143l-126.142,17.635c-0.754,0.106-1.293,0.229-1.69,0.38
		c-18.012,3.691-31.56,19.631-31.56,38.736c0,0.77,0.026,1.529,0.07,2.286c-0.204,1.257-0.288,2.595-0.292,4.047l-0.242,461.169
		c-0.003,0.115-0.001,0.229-0.002,0.346c0,0.074-0.006,0.152-0.006,0.229c0,0.051,0.003,0.099,0.003,0.147
		c0.001,0.094,0.005,0.186,0.007,0.279c0.229,18.919,15.63,34.188,34.604,34.188c1.277,0,2.536-0.074,3.776-0.21
		c2.01-0.014,4.366-0.199,7.182-0.559l119.705-16.797c-0.055,0.002-0.087-0.004-0.127-0.006
		c19.354-2.584,34.359-19.134,34.359-39.185c0-0.016,0-0.032,0-0.05c0.003-0.086,0.011-0.159,0.013-0.25l0.349-264.236
		C743.982,1002.52,741.388,999.313,735.087,1000.196z"/>
	<path d="M1060.295,719.487l-53.721,6.88c-5.599,0.783-8.808,3.375-10.822,9.366l-64.228,231.996
		c-3.63,7.415-10.985,8.436-14.64,2.096l-68.179-211.99c-2.181-5.405-5.279-7.109-10.179-6.422l-53.24,6.977
		c-6.298,0.883-9.409,4.175-9.224,10.571l-0.005,523.953c0.189,6.4,2.681,8.905,8.981,8.021l47.599-6.683
		c6.3-0.881,10.112-4.272,9.922-10.67l-0.026-309.286c2.038-6.565,7.324-8.138,10.306-2.875l50.998,171.337
		c2.187,5.403,5.283,7.109,10.879,6.326l18.205-2.556c5.599-0.786,8.105-3.278,10.118-9.272l49.7-185.773
		c2.563-6.162,8.155-5.425,10.691-0.076l-1.148,309.287c0.183,6.402,2.676,8.903,8.977,8.02l48.784-6.677
		c6.303-0.882,10.105-4.275,9.924-10.672l0.004-523.954C1069.79,721.011,1066.592,718.604,1060.295,719.487z"/>
	<path d="M1299.702,685.895l-47.604,6.682c-6.303,0.881-10.107,4.273-9.925,10.672l-0.32,450.469
		c-0.013,4.997-0.32,7.9-3.329,11.889c-3.803,3.39-6.51,4.488-11.41,5.17l-37.101,5.207c-4.901,0.688-7.799,0.378-10.989-2.026
		c-2.595-3.204-3.69-5.909-3.675-10.909l0.32-450.469c-0.185-6.399-3.377-8.808-9.677-7.921l-47.604,6.68
		c-6.302,0.88-9.408,4.174-9.225,10.576l-0.125,492.559c-0.005,0.195-0.003,0.388-0.002,0.582c0,0.023-0.003,0.046-0.003,0.069
		c0,0.015,0.002,0.03,0.002,0.044c0.001,0.119,0.007,0.238,0.01,0.356c0.218,18.933,15.621,34.213,34.604,34.213
		c0.565,0,1.127-0.017,1.688-0.043c1.187,0.084,2.402,0.036,3.604-0.134l119.709-16.797c0.49-0.069,0.978-0.158,1.462-0.268
		c21.281-0.644,38.433-18.079,38.433-39.513c0-1.366-0.069-2.718-0.206-4.048c0.125-0.821,0.196-1.645,0.219-2.463l0.123-492.56
		C1308.496,687.516,1306.005,685.009,1299.702,685.895z"/>
	<path d="M1553.816,650.235l-47.604,6.678c-6.3,0.885-10.109,4.274-9.923,10.671l-0.068,269.126
		c0.278,7.098-8.721,9.072-9.507,3.473l-70.425-262.8c-1.487-5.501-4.58-7.208-10.182-6.422l-49.002,6.877
		c-6.301,0.882-9.41,4.177-9.225,10.575l-0.003,523.953c0.181,6.399,2.674,8.9,8.975,8.018l47.604-6.678
		c6.3-0.882,10.108-4.274,9.927-10.67l0.166-268.429c-0.281-7.093,7.82-10.372,9.504-3.472l70.327,262.1
		c0.786,5.601,4.58,7.209,10.185,6.421l49.001-6.874c6.302-0.884,9.409-4.172,9.227-10.574V658.255
		C1562.608,651.857,1560.115,649.353,1553.816,650.235z"/>
	<path d="M1801.088,672.5c0.002-7.169-2.637-23.7-16.262-34.82l-5.405-4.681c-7.427-5.15-14.434-11.092-35.757-11.092
		l-132.457,20.275c-6.298,0.884-9.407,4.177-9.225,10.575l0.002,523.951c0.182,6.396,2.674,8.906,4.872,8.595l143.218-19.576
		c15.969-2.236,30.967-12.449,38.484-22.491c7.836-8.764,13.233-21.621,12.427-45.963L1801.088,672.5z M1734.587,1075.228
		c-0.009,4.997-0.436,14.364-5.502,19.164c-5.355,5.07-10.905,6.762-15.807,7.453l-35.442,4.975c-8.617,1.33-8.617,1.33-8.978-8.022
		l0.564-388.915c-0.177-9.862,0.016-9.653,9.121-11.276l35.945-6.072c6.8-0.03,11.667,0.871,15.254,3.636
		c3.663,2.818,4.872,7.917,5.462,12.117L1734.587,1075.228z"/>
</g>
</svg>
